<?xml version="1.0" encoding="UTF-8" standalone="no"?>
<svg
   xmlns:dc="http://purl.org/dc/elements/1.1/"
   xmlns:cc="http://creativecommons.org/ns#"
   xmlns:rdf="http://www.w3.org/1999/02/22-rdf-syntax-ns#"
   xmlns:svg="http://www.w3.org/2000/svg"
   xmlns="http://www.w3.org/2000/svg"
   xmlns:sodipodi="http://sodipodi.sourceforge.net/DTD/sodipodi-0.dtd"
   xmlns:inkscape="http://www.inkscape.org/namespaces/inkscape"
   version="1.1"
   id="Capa_1"
   x="0px"
   y="0px"
   viewBox="0 0 490.337 490.337"
   style="enable-background:new 0 0 490.337 490.337;"
   xml:space="preserve"
   width="512px"
   height="512px"
   sodipodi:docname="edit.svg"
   inkscape:version="1.0.1 (3bc2e813f5, 2020-09-07)"><metadata
   id="metadata45"><rdf:RDF><cc:Work
       rdf:about=""><dc:format>image/svg+xml</dc:format><dc:type
         rdf:resource="http://purl.org/dc/dcmitype/StillImage" /></cc:Work></rdf:RDF></metadata><defs
   id="defs43" /><sodipodi:namedview
   pagecolor="#ffffff"
   bordercolor="#666666"
   borderopacity="1"
   objecttolerance="10"
   gridtolerance="10"
   guidetolerance="10"
   inkscape:pageopacity="0"
   inkscape:pageshadow="2"
   inkscape:window-width="1920"
   inkscape:window-height="986"
   id="namedview41"
   showgrid="false"
   inkscape:zoom="1.7165501"
   inkscape:cx="195.43757"
   inkscape:cy="223.99731"
   inkscape:window-x="-11"
   inkscape:window-y="-11"
   inkscape:window-maximized="1"
   inkscape:current-layer="g8" />
<g
   id="g8">
	
<path
   style="fill:none;stroke:#000000;stroke-width:0.957689px;stroke-linecap:butt;stroke-linejoin:miter;stroke-opacity:1"
   d="m 235.29021,273.05283 c 37.92959,-36.33637 71.25116,-28.89651 102.31413,0 13.7456,22.72748 27.19115,45.89411 -1.93654,87.14453 -33.11698,27.01086 -65.86164,29.44808 -98.11829,-0.32276 -25.09201,-34.09485 -20.03419,-62.17771 -2.2593,-86.82177 z"
   id="path61"
   sodipodi:nodetypes="ccccc" /><path
   style="fill:none;stroke:#000000;stroke-width:0.957689px;stroke-linecap:butt;stroke-linejoin:miter;stroke-opacity:1"
   d="m 218.82958,245.94121 c 43.41026,-32.76227 88.59316,-40.72914 134.58987,0.32276 5.18429,6.17791 9.49862,12.12419 13.0925,17.83379 27.96909,44.43445 14.31606,77.50797 0.78608,101.90924 l 47.44535,48.09086 c 1.05855,17.20186 11.04597,40.53137 -29.69369,29.04818 L 338.89536,396.3462 c -20.0049,10.95098 -40.45836,15.62222 -61.32391,14.52408 -32.90492,-7.04693 -63.98568,-16.08421 -84.23971,-70.36112 -8.18437,-38.18483 1.85474,-69.28877 25.49784,-94.56795 z"
   id="path63"
   sodipodi:nodetypes="ccsccccccc" /><path
   style="fill:none;stroke:#000000;stroke-width:0.957689px;stroke-linecap:butt;stroke-linejoin:miter;stroke-opacity:1"
   d="m 179.57771,-24.996165 c 5.81694,-4.307781 10.43455,-2.618973 14.86614,0 2.69914,3.917337 4.16719,8.158646 0.26311,13.813671 -3.99172,2.4030311 -7.29017,6.139275 -15.65548,0.131558 -2.11061,-4.296715 -1.92386,-8.946868 0.52623,-13.945229 z"
   id="path65"
   sodipodi:nodetypes="ccccc" /><path
   style="fill:none;stroke:#000000;stroke-width:0.957689px;stroke-linecap:butt;stroke-linejoin:miter;stroke-opacity:1"
   d="m 136.82111,-6.1832618 c -19.67405,6.58097041 -22.72779,29.1968448 0.39468,39.5991868 l 96.16945,0.131559 c 26.36439,-10.583948 25.44404,-32.3482516 0.52623,-40.3885396 l -14.3399,-0.1315587 c -2.13131,-3.7359117 -7.4597,-0.7270445 -7.89353,-9.8669067 -0.17953,-9.063323 -2.70273,-13.146325 -5.65702,-16.313287 -3.84888,-4.973183 -8.61321,-8.344347 -15.26082,-8.41976 -5.57967,-1.214614 -11.30396,-0.404475 -17.2342,3.288969 -5.17106,5.090013 -9.67711,10.750027 -9.99846,19.996932 -1.89782,6.225225 -4.74135,10.9373044 -10.13002,11.5771702 z"
   id="path67"
   sodipodi:nodetypes="cccccccccccc" /><path
   style="fill:none;stroke:#000000;stroke-width:0.957689px;stroke-linecap:butt;stroke-linejoin:miter;stroke-opacity:1"
   d="m 91.777057,117.44116 c -7.145606,7.43736 -7.267193,14.13535 -0.278958,20.08494 l 190.249101,0.27897 c 5.82498,-4.8824 9.17537,-10.50718 0.27895,-19.806 z"
   id="path69"
   sodipodi:nodetypes="ccccc" /><path
   style="fill:none;stroke:#000000;stroke-width:0.957689px;stroke-linecap:butt;stroke-linejoin:miter;stroke-opacity:1"
   d="m 92.334971,180.76453 c -7.260489,6.602 -9.6024,13.204 -0.557914,19.806 l 192.201793,0.27896 c 3.8931,-6.95592 4.28575,-13.59361 0,-19.806 z"
   id="path71"
   sodipodi:nodetypes="ccccc" /><path
   style="fill:none;stroke:#000000;stroke-width:0.957689px;stroke-linecap:butt;stroke-linejoin:miter;stroke-opacity:1"
   d="m 91.219142,236.55607 c -6.670021,7.89845 -4.145706,13.82668 -0.557916,19.52702 l 100.424744,0.27896 15.90058,-20.36391 z"
   id="path73"
   sodipodi:nodetypes="ccccc" /><path
   style="fill:none;stroke:#000000;stroke-width:0.957689px;stroke-linecap:butt;stroke-linejoin:miter;stroke-opacity:1"
   d="m 90.382268,298.48465 c -3.606553,6.4389 -8.239062,12.7638 1.115831,20.64286 h 82.850411 l 0.55792,-20.3639 z"
   id="path75"
   sodipodi:nodetypes="ccccc" /><path
   style="fill:none;stroke:#000000;stroke-width:0.957689px;stroke-linecap:butt;stroke-linejoin:miter;stroke-opacity:1"
   d="m 50.212371,16.179542 56.907359,0.557915 c 3.47914,21.309432 14.48028,27.574848 26.77993,31.243254 h 104.33015 c 19.81817,-5.52657 25.79696,-17.972829 27.89576,-32.359085 l 60.81276,1.115831 c 15.67472,7.43887 14.05925,14.877739 17.29537,22.316609 l -1.11583,179.090794 c -11.71622,-6.81059 -23.43244,-9.92831 -35.14866,-13.94789 V 84.245201 L 65.276082,83.12937 65.833998,360.41325 H 183.55411 c 5.76102,13.39243 12.55598,26.1645 25.66411,35.14866 l -157.890018,0.55791 c -9.329196,-3.4799 -17.754509,-8.54159 -21.200779,-22.31661 L 30.685338,39.054066 c 0.750689,-9.92817 4.050227,-18.836801 19.527033,-22.874524 z"
   id="path77"
   sodipodi:nodetypes="cccccccccccccccccc" /><path
   style="fill:#000080;stroke-width:0.582564"
   d="m 415.35541,464.82615 c -0.80102,-0.14329 -4.00799,-0.81843 -7.12659,-1.50031 l -5.67018,-1.23979 -24.22572,-24.65452 -24.22572,-24.65452 -5.64049,2.81878 c -15.6954,7.8436 -31.06615,11.86515 -48.46826,12.68107 -6.86061,0.32168 -8.65994,0.20107 -13.98153,-0.93711 -40.08909,-8.57427 -60.96938,-24.20281 -77.09127,-57.70149 -6.87792,-14.29122 -8.37353,-20.37758 -8.94787,-36.41334 -0.95629,-26.70015 6.98042,-49.47789 24.61727,-70.64965 4.03571,-4.84458 5.49671,-6.06863 14.0769,-11.79383 15.80079,-10.54321 30.44944,-17.03489 45.5726,-20.19589 6.28876,-1.31447 8.70666,-1.52529 17.21963,-1.50144 8.28679,0.0232 10.99731,0.26387 16.60307,1.47408 15.5307,3.35287 29.95501,10.61071 44.70546,22.4943 4.66339,3.75703 7.08322,6.29139 11.08978,11.6147 12.44548,16.53563 20.08325,32.29112 23.49305,48.46238 1.83923,8.72271 1.8599,22.16431 0.0481,31.28196 -1.81727,9.14518 -5.26014,18.78607 -10.42986,29.20617 l -4.43105,8.93123 15.67964,15.82773 c 8.62381,8.70526 19.79713,20.0222 24.8296,25.14876 l 9.14995,9.32102 0.95777,7.86461 c 1.80387,14.8123 0.68093,20.11678 -4.82266,22.78103 -2.6666,1.29088 -9.37125,1.97989 -12.9816,1.33407 z M 314.1003,396.81237 c 10.55184,-2.84015 22.64908,-9.00756 32.59628,-16.61822 5.06688,-3.8767 9.04691,-9.45706 14.38437,-20.16819 12.19898,-24.48069 11.06003,-42.97098 -4.27024,-69.3251 -3.12487,-5.37192 -4.44766,-7.02055 -8.17993,-10.19486 -17.42759,-14.82225 -32.85573,-21.52749 -49.57814,-21.54721 -13.81447,-0.0163 -24.51553,3.55908 -38.1405,12.74327 -8.66175,5.83864 -14.96497,11.48646 -18.19903,16.30675 -6.29909,9.38864 -10.54788,19.36628 -12.36551,29.03857 -1.41504,7.52998 -0.90873,20.08131 1.11348,27.60273 3.23286,12.02436 10.76031,26.06496 17.61254,32.85186 10.09067,9.99446 24.79417,17.94122 37.82647,20.44399 6.73814,1.29401 20.27744,0.72975 27.20021,-1.13359 z"
   id="path79"
   transform="scale(0.95768945)" /><path
   style="fill:#000080;stroke-width:0.582564"
   d="m 93.801503,330.25049 c -3.623612,-4.12707 -3.918911,-8.00858 -1.040811,-13.68079 l 1.893332,-3.73141 43.546646,-0.14935 43.54665,-0.14935 -0.003,5.10114 c -0.002,2.80563 -0.17186,7.26391 -0.37763,9.9073 l -0.37414,4.80615 H 138.32031 95.648568 Z"
   id="path81"
   transform="scale(0.95768945)" /><path
   style="fill:#000080;stroke-width:0.582564"
   d="M 49.505327,410.95752 C 41.7717,407.30268 36.963535,402.42144 33.936725,395.15229 L 32.409447,391.48441 32.55122,216.71526 C 32.637488,110.36897 32.909719,40.367609 33.246567,37.914226 34.409265,29.445878 38.710079,23.588881 46.462405,19.916445 l 3.916768,-1.855454 11.651277,-0.197492 c 6.408202,-0.10862 20.070396,-0.01361 30.36043,0.211133 l 18.70915,0.408624 1.17409,4.755868 c 3.19042,12.92345 10.49462,21.40688 22.37642,25.98899 l 4.53203,1.747733 h 55.08987 55.08987 l 4.52106,-1.743507 c 8.12675,-3.134005 13.96216,-7.505211 17.7966,-13.331136 2.97678,-4.522819 5.22622,-9.976719 6.21681,-15.073035 l 0.70772,-3.641024 5.60421,0.0114 c 3.08231,0.0063 17.22894,0.263172 31.43697,0.570891 l 25.83278,0.559489 3.00413,1.721249 c 7.08507,4.059461 9.84884,7.631597 12.53599,16.202605 l 1.637,5.221418 -0.44863,64.026693 c -0.24674,35.21469 -0.46589,76.78845 -0.48699,92.38616 l -0.0384,28.35945 -5.97127,-2.81436 c -5.10158,-2.40444 -17.33173,-7.01162 -26.6523,-10.04009 l -2.62154,-0.85179 -0.14824,-62.65017 -0.14825,-62.650171 -84.90607,-0.365076 C 190.53558,86.674054 133.25616,86.347148 109.94632,86.148383 l -42.381514,-0.361387 5.01e-4,108.573854 c 2.76e-4,59.71562 0.174367,125.28615 0.38687,145.7123 l 0.386368,37.13844 h 61.319575 61.31958 l 3.48115,7.13641 c 4.91159,10.06884 8.72732,15.6127 15.17966,22.05449 l 5.60623,5.59707 -38.7405,0.37373 c -21.30727,0.20556 -57.74664,0.37375 -80.97637,0.37376 l -42.235878,2e-5 z"
   id="path83"
   transform="scale(0.95768945)" /><path
   style="fill:#000000;stroke-width:0.582564"
   d="m 138.40501,31.133152 c -7.67358,-5.132399 -11.10963,-10.636095 -11.0921,-17.766783 0.008,-3.294367 0.33,-4.7658868 1.61879,-7.400082 1.89099,-3.8650402 6.10965,-7.8812288 10.57169,-10.0643 2.85923,-1.3988942 3.92253,-1.5575089 12.3458,-1.8416555 6.98179,-0.2355201 9.79757,-0.5603088 11.61056,-1.3392298 4.1416,-1.7793737 7.47507,-7.4952447 8.44207,-14.4755427 0.68896,-4.97335 3.27824,-10.253562 7.05388,-14.384716 5.41052,-5.919967 11.48385,-7.826503 20.58156,-6.460951 2.89564,0.434632 6.137,1.241271 7.20302,1.792531 4.347,2.247917 10.38236,9.135437 11.98465,13.676801 0.46803,1.326548 1.09837,4.830184 1.40076,7.785859 0.70679,6.908508 1.38566,8.330019 4.80589,10.06318 1.5157,0.7680649 2.92093,1.6636205 3.12272,1.9901231 0.20205,0.3269231 2.64168,0.6022055 5.42994,0.6127027 7.85685,0.029577 12.40366,0.8150896 16.55898,2.8607462 13.944,6.8646106 17.0808,19.287871 7.34269,29.080699 -2.9688,2.985483 -6.02513,5.162477 -10.22644,7.284186 l -3.03909,1.534776 H 193.46677 142.81315 Z M 201.1873,-9.3058226 c 7.14321,-4.1862054 7.03048,-15.1586924 -0.19317,-18.8013704 -3.50903,-1.7695 -8.19386,-1.7695 -11.6751,0 -2.17131,1.103667 -2.73925,1.770996 -3.5946,4.223588 -1.88457,5.403815 -1.03321,11.651062 1.88221,13.811486 4.20144,3.1134083 9.10361,3.3900166 13.58066,0.7662964 z"
   id="path85"
   transform="scale(0.95768945)" /><path
   style="fill:#000000;stroke-width:0.582564"
   d="m 94.10842,329.90921 c -3.668762,-4.28613 -3.796747,-7.58412 -0.543778,-14.01246 l 1.400292,-2.76718 37.711196,-0.003 c 20.74115,-0.002 40.27348,-0.17269 43.40517,-0.38007 l 5.69397,-0.37705 -0.33207,7.51647 c -0.18264,4.13406 -0.46715,8.63063 -0.63224,9.99237 l -0.30016,2.4759 H 138.35601 96.201224 Z"
   id="path87"
   transform="scale(0.95768945)" /><path
   style="fill:#000000;stroke-width:0.582564"
   d="m 129.71916,266.67018 -34.842522,-0.15491 -1.489295,-3.25305 c -1.874121,-4.09362 -1.950529,-7.9558 -0.2278,-11.51449 0.693822,-1.43324 1.605594,-2.89147 2.026161,-3.24051 0.533742,-0.44297 18.668386,-0.75027 60.049706,-1.01758 l 59.28503,-0.38296 -7.79375,9.99181 -7.79374,9.9918 -17.18563,-0.1326 c -9.4521,-0.0729 -32.86477,-0.20231 -52.02816,-0.28751 z"
   id="path89"
   transform="scale(0.95768945)" /><path
   style="fill:#000000;stroke-width:0.582564"
   d="m 93.854188,206.45733 c -4.430899,-4.4309 -4.34249,-8.72387 0.28567,-13.87149 l 2.661111,-2.9598 h 99.596661 99.59666 l 1.48897,3.25235 c 1.22425,2.67411 1.44541,3.8911 1.24395,6.84512 -0.13477,1.97603 -0.80457,4.83801 -1.48845,6.35996 l -1.24342,2.76718 H 196.12143 96.247508 Z"
   id="path91"
   transform="scale(0.95768945)" /><path
   style="fill:#00ffff;stroke-width:0.582564"
   d="m 94.650087,141.41888 c -1.912646,-1.89235 -3.754243,-5.66874 -3.764242,-7.71897 -0.0088,-1.80324 2.328017,-6.76003 4.154249,-8.8119 l 1.361622,-1.52986 99.026354,0.36473 99.02636,0.36473 2.23679,3.25463 c 3.71509,5.40563 3.45964,9.14828 -0.94089,13.78536 l -1.79675,1.89333 H 195.11145 96.269315 Z"
   id="path93"
   transform="scale(0.95768945)" /><path
   style="fill:#000000;stroke-width:0.582564"
   d="m 408.65593,463.17806 -5.82564,-1.35811 -24.23417,-24.65156 -24.23417,-24.65156 -7.86212,3.62313 c -18.30716,8.43655 -35.51571,12.25825 -52.22222,11.59758 -5.9399,-0.23489 -8.91172,-0.6944 -15.25067,-2.35808 -29.62503,-7.77519 -46.78309,-19.06052 -60.83361,-40.01197 -4.38438,-6.53777 -12.5207,-22.92239 -14.46771,-29.13452 -2.6358,-8.40982 -3.04645,-12.08669 -3.02472,-27.08289 0.0226,-15.58664 0.70771,-20.33488 4.63438,-32.11893 4.66367,-13.99578 16.32843,-32.5552 25.04892,-39.85452 7.66152,-6.41292 25.47232,-16.65501 36.41744,-20.94183 13.479,-5.27925 25.09346,-7.34671 38.15793,-6.79237 19.01272,0.80672 36.39245,7.73086 55.04572,21.93038 6.60269,5.0262 12.689,11.86832 19.0646,21.43207 8.99977,13.50014 15.17179,27.36199 17.95466,40.32469 1.26823,5.90745 1.73395,18.83583 0.91691,25.45345 -1.35216,10.95196 -5.42495,23.13169 -12.39085,37.05505 l -3.43891,6.87364 24.92339,25.30176 24.92339,25.30177 0.67835,5.39996 c 0.87184,6.94017 0.95577,17.38019 0.15669,19.4892 -0.78984,2.08464 -2.67844,4.11723 -4.91298,5.28758 -2.96871,1.55486 -12.30362,1.49955 -19.22461,-0.11392 z M 308.55844,398.14338 c 9.02135,-1.23349 21.32747,-6.34516 32.12184,-13.34269 10.1513,-6.58065 14.16541,-11.44836 20.73075,-25.13915 6.22109,-12.9729 7.99216,-19.76301 7.97534,-30.57653 -0.0186,-11.99061 -3.51392,-23.20356 -11.67568,-37.45593 -3.52521,-6.15586 -5.89951,-8.96799 -11.28791,-13.36946 -10.23939,-8.36396 -20.90995,-14.3223 -30.97706,-17.29729 -6.46403,-1.91022 -19.65104,-2.61913 -26.91697,-1.44701 -12.9071,2.08213 -28.66706,10.66572 -40.52849,22.07365 -8.20811,7.89428 -15.89397,23.24066 -17.91547,35.77183 -1.0581,6.55912 -0.45431,21.54319 1.10419,27.40228 2.9483,11.08393 10.03669,24.50467 16.84734,31.89772 8.80955,9.56289 24.22326,18.37429 37.11608,21.21776 4.32452,0.95377 17.29405,1.1005 23.40604,0.26482 z"
   id="path95"
   transform="scale(0.95768945)" /><path
   style="fill:#000000;stroke-width:0.582564"
   d="m 95.124806,141.1276 c -4.751181,-5.00657 -4.750225,-9.0805 0.0037,-15.82398 l 1.196193,-1.6968 98.748731,0.40707 c 73.76797,0.30409 98.95555,0.57872 99.56632,1.08561 1.78824,1.48411 4.19201,6.58535 4.19742,8.90771 0.006,2.47937 -0.80022,4.03372 -3.69223,7.12039 l -1.77393,1.89333 H 195.14629 96.921557 Z"
   id="path97"
   transform="scale(0.95768945)" /></g>
<g
   id="g10">
</g>
<g
   id="g12">
</g>
<g
   id="g14">
</g>
<g
   id="g16">
</g>
<g
   id="g18">
</g>
<g
   id="g20">
</g>
<g
   id="g22">
</g>
<g
   id="g24">
</g>
<g
   id="g26">
</g>
<g
   id="g28">
</g>
<g
   id="g30">
</g>
<g
   id="g32">
</g>
<g
   id="g34">
</g>
<g
   id="g36">
</g>
<g
   id="g38">
</g>
</svg>
