<?xml version="1.0" encoding="UTF-8" standalone="no"?>
<svg
   xmlns:dc="http://purl.org/dc/elements/1.1/"
   xmlns:cc="http://creativecommons.org/ns#"
   xmlns:rdf="http://www.w3.org/1999/02/22-rdf-syntax-ns#"
   xmlns:svg="http://www.w3.org/2000/svg"
   xmlns="http://www.w3.org/2000/svg"
   xmlns:sodipodi="http://sodipodi.sourceforge.net/DTD/sodipodi-0.dtd"
   xmlns:inkscape="http://www.inkscape.org/namespaces/inkscape"
   version="1.1"
   id="Capa_1"
   x="0px"
   y="0px"
   viewBox="0 0 490.337 490.337"
   style="enable-background:new 0 0 490.337 490.337;"
   xml:space="preserve"
   width="512px"
   height="512px"
   sodipodi:docname="edit - Copia.svg"
   inkscape:version="1.0.1 (3bc2e813f5, 2020-09-07)"><metadata
   id="metadata45"><rdf:RDF><cc:Work
       rdf:about=""><dc:format>image/svg+xml</dc:format><dc:type
         rdf:resource="http://purl.org/dc/dcmitype/StillImage" /></cc:Work></rdf:RDF></metadata><defs
   id="defs43"><inkscape:path-effect
     effect="bspline"
     id="path-effect65"
     is_visible="true"
     lpeversion="1"
     weight="33.333333"
     steps="2"
     helper_size="0"
     apply_no_weight="true"
     apply_with_weight="true"
     only_selected="false" /></defs><sodipodi:namedview
   pagecolor="#ffffff"
   bordercolor="#666666"
   borderopacity="1"
   objecttolerance="10"
   gridtolerance="10"
   guidetolerance="10"
   inkscape:pageopacity="0"
   inkscape:pageshadow="2"
   inkscape:window-width="1920"
   inkscape:window-height="986"
   id="namedview41"
   showgrid="false"
   inkscape:zoom="1.4436872"
   inkscape:cx="339.63128"
   inkscape:cy="210.11426"
   inkscape:window-x="-11"
   inkscape:window-y="-11"
   inkscape:window-maximized="1"
   inkscape:current-layer="g6" />
<g
   id="g8">
	<g
   id="g6">
		
		
	<path
   style="fill:none;stroke:#000000;stroke-width:0.957689px;stroke-linecap:butt;stroke-linejoin:miter;stroke-opacity:1"
   d="M 45.969094,184.4893 173.45671,58.227519 c 4.82474,-3.708702 10.35309,-7.417403 17.16533,-11.126105 5.57189,-3.033432 12.0027,-6.066865 19.60995,-9.100297 l 31.8719,-6.129212 28.8073,0.612921 18.11757,5.09222 19.88355,11.456654 141.58481,137.29436 6.74213,11.03258 -1.83876,9.80674 -8.5809,5.51629 h -26.35561 l 1.22584,151.39155 c -3.5832,18.17707 -9.72334,34.30859 -21.45225,45.96909 l -17.9199,18.6233 -21.30705,11.40985 -33.71067,7.96797 h -26.96854 c -10.38533,-2.94888 -11.52414,-7.74708 -14.09719,-12.25842 l 0,-115.22919 -77.841,-10e-6 v 115.84212 l -8.58089,10.41966 H 154.45615 C 115.51754,433.95904 84.443472,411.48625 74.776392,362.84938 L 72.937629,212.07075 H 47.194936 C 36.36832,206.13256 30.860703,198.53218 45.969094,184.4893 Z"
   id="path61"
   sodipodi:nodetypes="ccscccccccccccccccccccccccccc" /><path
   style="fill:none;stroke:#000000;stroke-width:0.957689px;stroke-linecap:butt;stroke-linejoin:miter;stroke-opacity:1"
   d="M 86.237258,185.07843 H 410.62202 L 305.47891,80.266987 C 273.5782,59.198098 240.68124,43.630882 192.37542,79.603623 Z"
   id="path67"
   sodipodi:nodetypes="ccccc" /><path
   style="fill:none;stroke:#000000;stroke-width:0.957689px;stroke-linecap:butt;stroke-linejoin:miter;stroke-opacity:1"
   d="m 99.836214,212.27633 294.201716,0.33168 v 148.26175 c -10.79948,38.82505 -36.85227,58.91032 -78.60857,59.70271 l -0.33169,-117.74702 c -0.50146,-4.23368 -5.48262,-7.57142 -10.28213,-10.94549 L 189.0586,291.54827 c -2.43892,0.4054 -4.28316,1.55414 -5.72279,3.20867 -1.60171,1.8408 -2.70256,4.30769 -3.56429,7.07347 l -0.99505,118.41039 c -33.79668,-1.03844 -64.58485,-9.14032 -78.27689,-57.38095 z"
   id="path69"
   sodipodi:nodetypes="cccccccscccc" /><path
   style="fill:#000080;stroke-width:0.692671"
   d="m 309.15376,465.10203 c -3.68219,-1.73644 -5.44207,-3.40356 -7.85366,-7.43971 l -1.49739,-2.50611 V 394.45611 333.756 h -41.56025 -41.56025 v 60.80006 60.80007 l -4.32919,5.31314 -4.3292,5.31314 -22.8872,0.0368 -22.8872,0.0369 -8.28298,-3.13085 C 113.52867,447.64036 90.717257,423.8955 80.96324,386.93477 l -2.060767,-7.80883 -0.741892,-69.26708 c -0.40804,-38.09689 -0.921892,-73.70883 -1.141892,-79.13764 l -0.400002,-9.87056 -13.261904,-0.003 c -12.23417,-0.002 -13.449778,-0.11522 -15.68625,-1.45597 -7.820089,-4.68807 -9.956868,-9.86077 -6.818151,-16.50536 1.415832,-2.99727 36.163119,-37.88791 122.840508,-123.34726 22.05432,-21.744396 24.65692,-23.785354 40.52125,-31.776677 13.15784,-6.627995 15.10978,-7.265728 32.20919,-10.523358 l 15.23876,-2.903154 15.23875,0.146709 15.23876,0.14671 9.56164,2.675198 c 8.33076,2.330818 10.85987,3.416211 19.64642,8.43147 l 10.08477,5.756271 74.09271,71.784091 c 66.76937,64.68894 74.43133,72.3329 77.51869,77.33654 l 3.42599,5.55243 -0.78881,4.77645 -0.78881,4.77643 -4.69998,2.91237 -4.69996,2.91237 h -13.5777 -13.57769 l 0.0509,21.9923 c 0.028,12.09576 0.29793,47.7077 0.59989,79.13764 l 0.549,57.14534 -2.27503,9.0356 c -4.34152,17.24297 -9.81208,27.47072 -21.38469,39.98074 -14.91629,16.12454 -17.60479,18.37875 -29.14403,24.43617 -10.30101,5.40743 -10.53255,5.48836 -27.01416,9.4419 l -16.6241,3.98773 -15.23876,0.0172 c -14.58739,0.0165 -15.38679,-0.0526 -18.70211,-1.61598 z M 187.82297,401.17737 c 0.25286,-21.20651 0.45974,-49.19847 0.45974,-62.20438 V 315.3259 l 1.78053,-3.57306 c 1.0566,-2.12032 2.70919,-4.147 4.06461,-4.9847 2.25271,-1.39225 3.11665,-1.41164 62.8881,-1.41164 h 60.60402 l 3.83464,2.94385 c 2.10904,1.61912 4.49005,3.89825 5.29111,5.06473 1.45361,2.11668 1.45649,2.24355 1.45649,64.24521 v 62.12435 l 4.32919,-0.002 c 6.3959,-0.003 15.96508,-1.30652 23.0349,-3.13813 26.15567,-6.77622 44.61495,-24.3918 54.29069,-51.80927 l 2.15839,-6.11594 v -78.90928 -78.90928 l -154.29243,-1.3e-4 -154.29242,-1.3e-4 0.20342,78.98447 0.20342,78.98448 2.45742,7.05998 c 11.86884,34.09829 32.40435,49.85623 69.21781,53.11434 3.40435,0.30129 7.46344,0.59127 9.02019,0.64439 l 2.83046,0.0966 z m 187.1329,-262.7775 C 324.92013,88.341919 318.93897,82.585405 313.30979,79.069063 298.06993,69.549295 285.43957,63.986498 273.43524,61.50709 c -9.96428,-2.058049 -24.92804,-1.636709 -34.30319,0.965886 -11.74867,3.2615 -25.71688,10.251765 -35.95692,17.994315 -2.28581,1.728315 -29.09218,27.928109 -59.56969,58.221779 l -55.413665,55.07939 171.088065,0.034 171.08806,0.034 z"
   id="path71"
   transform="scale(0.95768945)" /></g>
</g>
<g
   id="g10">
</g>
<g
   id="g12">
</g>
<g
   id="g14">
</g>
<g
   id="g16">
</g>
<g
   id="g18">
</g>
<g
   id="g20">
</g>
<g
   id="g22">
</g>
<g
   id="g24">
</g>
<g
   id="g26">
</g>
<g
   id="g28">
</g>
<g
   id="g30">
</g>
<g
   id="g32">
</g>
<g
   id="g34">
</g>
<g
   id="g36">
</g>
<g
   id="g38">
</g>
</svg>
